<?xml version="1.0" encoding="UTF-8" standalone="no"?>
<svg
   version="1.1"
   id="Layer_1"
   x="0px"
   y="0px"
   width="100%"
   viewBox="0 0 672 672"
   enable-background="new 0 0 672 672"
   xml:space="preserve"
   sodipodi:docname="file(1).svg"
   inkscape:version="1.2.1 (9c6d41e, 2022-07-14)"
   inkscape:export-filename="file(1).png"
   inkscape:export-xdpi="96"
   inkscape:export-ydpi="96"
   xmlns:inkscape="http://www.inkscape.org/namespaces/inkscape"
   xmlns:sodipodi="http://sodipodi.sourceforge.net/DTD/sodipodi-0.dtd"
   xmlns="http://www.w3.org/2000/svg"
   xmlns:svg="http://www.w3.org/2000/svg"><defs
   id="defs9" /><sodipodi:namedview
   id="namedview7"
   pagecolor="#ffffff"
   bordercolor="#000000"
   borderopacity="0.25"
   inkscape:showpageshadow="2"
   inkscape:pageopacity="0.0"
   inkscape:pagecheckerboard="0"
   inkscape:deskcolor="#d1d1d1"
   showgrid="false"
   inkscape:zoom="0.84259293"
   inkscape:cx="266.43945"
   inkscape:cy="369.69216"
   inkscape:window-width="1470"
   inkscape:window-height="895"
   inkscape:window-x="0"
   inkscape:window-y="33"
   inkscape:window-maximized="1"
   inkscape:current-layer="Layer_1" />
<path
   fill="#000000"
   opacity="1"
   stroke="none"
   d="m 306.42657,121.18013 c 6.01791,-6.51039 9.46624,-11.10503 16.50451,-13.89472 10.18064,-4.0352 19.80069,-4.23708 29.1648,2.14767 6.14056,4.18682 10.59677,10.08441 15.77792,15.21225 19.8602,19.65585 39.66998,39.37885 58.94904,59.60069 16.14917,16.93892 32.78854,33.38389 49.10208,50.15388 12.5072,12.85719 25.47714,25.26612 37.91528,38.18814 9.73016,10.10874 17.0083,21.9083 23.02905,34.637 3.3877,7.16211 6.1211,14.61874 7.9278,22.07946 3.62726,14.9784 5.55121,30.51783 3.2041,45.86609 -4.83795,31.63596 -17.95532,59.21973 -42.22104,80.90842 -14.08969,12.59338 -30.29703,21.39328 -48.22592,26.87118 -13.62216,4.16208 -27.75607,4.24518 -41.92584,3.77863 -8.99652,-0.2962 -17.92603,-0.84082 -26.48722,-3.58228 -11.66113,-3.73416 -23.02902,-8.18756 -33.32293,-15.09545 -5.94147,-3.9871 -11.53955,-8.31757 -16.63303,-13.31488 -2.67975,-2.62915 -4.89685,-2.3024 -7.56351,0.32189 -13.7868,13.56788 -30.64547,21.9907 -48.78643,27.84015 -15.23029,4.05641 -30.32224,4.12334 -43.87734,3.46677 -25.28117,-0.0162 -46.86503,-9.79288 -66.71974,-24.68451 -17.7242,-13.29367 -30.55714,-30.52115 -39.29065,-50.4176 -6.27407,-14.2934 -10.46397,-29.53168 -9.93178,-45.64877 0.42645,-12.91416 -0.55258,-25.90107 3.48772,-38.48597 6.21776,-19.36734 14.72559,-37.59533 28.95573,-52.37277 23.28569,-24.18123 47.07544,-47.87668 70.61978,-71.80929 23.80494,-24.1975 47.5689,-48.43532 71.35403,-72.65229 2.90899,-2.96178 5.83792,-5.90397 8.99359,-9.11369 m 56.90371,82.22948 c -8.09067,-8.12394 -16.26193,-16.17002 -24.22824,-24.41411 -2.77887,-2.87576 -4.74731,-2.65314 -7.36444,0.1799 -5.30151,5.73886 -10.84564,11.2549 -16.32846,16.82472 -19.11203,19.41535 -38.22495,38.82991 -57.36786,58.21483 -15.40976,15.60454 -30.80141,31.22786 -46.3166,46.72722 -13.18036,13.16696 -25.64017,26.29541 -29.05481,46.09146 -2.02422,11.73523 -1.56055,22.90085 1.60733,33.80414 2.83268,9.74954 8.00058,18.53204 15.14596,26.354 12.28313,13.44623 27.71968,20.07504 45.07738,21.30686 16.83325,1.19467 32.2804,-4.23825 45.44788,-15.39267 8.91662,-7.55347 16.4548,-16.48813 25.052,-24.34421 5.33856,-4.87839 11.41986,-8.34753 18.82174,-8.93143 9.32178,-0.73541 16.60959,3.46466 22.92261,9.73175 6.0098,5.96601 11.84665,12.10614 17.76621,18.16321 13.27142,13.57968 29.71872,19.80069 48.37778,21.16263 15.30048,-0.49484 31.85884,-7.00128 42.45934,-15.73245 9.57215,-8.00898 16.9668,-17.70087 20.55158,-29.88974 7.62944,-24.44941 1.89556,-46.09754 -10.93939,-65.1171 -16.36981,-18.57117 -34.38355,-35.60046 -51.5506,-53.42334 -19.69354,-20.44586 -39.96173,-40.319 -60.07941,-61.31567 z"
   id="path2"
   sodipodi:nodetypes="cssssssssssssssssccsssssssccssssssssssssssccccsc"
   style="fill:#000000;fill-opacity:1" />
<path
   fill="#000000"
   opacity="1"
   stroke="none"
   d="m 279.60673,562.30164 c -13.16928,0.22308 -22.58734,-5.79462 -27.23088,-17.14698 -6.79967,-16.62353 0.84456,-37.94714 22.54091,-40.64874 39.2722,-1.42996 82.28191,0.0982 117.35169,-0.68262 18.43307,-0.43823 33.74411,17.54639 28.83425,37.55078 -2.27954,9.28742 -12.2796,21.13147 -25.61172,20.90265 -39.11598,0.0446 -79.67941,-0.55005 -115.88425,0.0249 z"
   id="path4"
   sodipodi:nodetypes="csccscc" />
</svg>
